<svg xmlns="http://www.w3.org/2000/svg" width="800" height="800" fill="none" viewBox="0 0 24 24"><path fill="#9154e8" fill-rule="evenodd" d="M3.96 2.25h16.08q.66-.01 1.16.04c.35.05.73.16 1.04.47.3.31.42.69.47 1.04q.05.5.04 1.16v.08q.01.66-.04 1.16c-.05.35-.16.73-.47 1.04-.3.3-.65.4-.99.46v5.36c0 1.83 0 3.29-.15 4.43a4.7 4.7 0 0 1-1.24 2.87 4.7 4.7 0 0 1-2.87 1.24c-1.14.15-2.6.15-4.43.15h-1.12c-1.83 0-3.29 0-4.43-.15a4.7 4.7 0 0 1-2.87-1.24 4.7 4.7 0 0 1-1.24-2.87c-.15-1.14-.15-2.6-.15-4.43V7.7a1.7 1.7 0 0 1-.99-.46c-.3-.31-.42-.69-.47-1.04a9 9 0 0 1-.04-1.16v-.08q-.01-.66.04-1.16c.05-.35.16-.73.47-1.04.31-.3.69-.42 1.04-.47q.5-.05 1.16-.04m.29 5.5V13c0 1.9 0 3.26.14 4.29.14 1 .39 1.58.81 2 .43.43 1 .69 2.01.82 1.03.14 2.38.14 4.29.14h1c1.9 0 3.26 0 4.29-.14 1-.13 1.58-.39 2-.81.43-.43.69-1 .82-2.01.14-1.03.14-2.38.14-4.29V7.75zM2.82 3.82h.02L3 3.78c.21-.03.5-.03 1-.03h16a9 9 0 0 1 1.17.07l.01.02q.02.03.04.16c.03.21.03.5.03 1a9 9 0 0 1-.07 1.17l-.02.01-.16.04c-.21.03-.5.03-1 .03H4a9 9 0 0 1-1.17-.07l-.01-.02L2.78 6c-.03-.21-.03-.5-.03-1a9 9 0 0 1 .07-1.17m7.66 5.93h3.04l.58.01q.27 0 .57.12a1.8 1.8 0 0 1 1.07 1.52l.01.58v.04l-.01.58q0 .27-.12.57a1.8 1.8 0 0 1-1.52 1.07l-.58.01h-3.04l-.58-.01a1.75 1.75 0 0 1-1.64-1.64l-.01-.58v-.04l.01-.58q0-.27.12-.57A1.8 1.8 0 0 1 9.9 9.76zm-.58 1.52a.3.3 0 0 0-.13.13l-.01.1a8 8 0 0 0 .01 1.1q.04.09.13.13l.1.01.5.01h3l.6-.02q.09-.04.13-.13l.01-.1a8 8 0 0 0-.01-1.1.3.3 0 0 0-.13-.13l-.1-.01-.5-.01h-3z" clip-rule="evenodd"/></svg>